# xmcd
# 
# Track frame offsets:
#     150
#     20912
#     37775
#     59925
# 
# Disc length: 1044
# 
# Revision: 2
# Processed by: cddbd v1.5.2PL0 Copyright (c) Steve Scherf et al.
# Submitted via: fre:ac v1.0.17
# 
DISCID=34041204
DTITLE=張學友 - 雪狼湖 (Citybank 珍藏版EP) 
DYEAR=1997
DGENRE=
TTITLE0=愛是永恒  (永恒歌) - 雪狼湖 閉幕曲
TTITLE1=真相
TTITLE2=忘記你我做不到
TTITLE3=情書
EXTD=
EXTT0=
EXTT1=
EXTT2=
EXTT3=
PLAYORDER=
